<svg width="40" height="40" viewBox="0 0 40 40" fill="none" xmlns="http://www.w3.org/2000/svg">
<path d="M7.03125 21.25C4.44719 21.25 2.34375 23.3523 2.34375 25.9375C2.34375 28.5227 4.44719 30.625 7.03125 30.625C9.61531 30.625 11.7188 28.5227 11.7188 25.9375C11.7188 23.3523 9.61531 21.25 7.03125 21.25ZM38.8281 21.25H17.7344C17.0866 21.25 16.5625 21.7741 16.5625 22.4219V26.6241L14.5621 28.6245C14.1044 29.0823 14.1044 29.8239 14.5621 30.2816L16.5625 32.2821V36.4844C16.5625 37.1321 17.0866 37.6562 17.7344 37.6562H38.8281C39.4759 37.6562 40 37.1321 40 36.4844V22.4219C40 21.7741 39.4759 21.25 38.8281 21.25ZM32.9688 9.375C35.5528 9.375 37.6562 7.27273 37.6562 4.6875C37.6562 2.10227 35.5528 0 32.9688 0C30.3847 0 28.2812 2.10227 28.2812 4.6875C28.2812 7.27273 30.3847 9.375 32.9688 9.375ZM23.4375 15.2344V11.0321L25.4379 9.03172C25.8956 8.57398 25.8956 7.83234 25.4379 7.37461L23.4375 5.37414V1.17188C23.4375 0.524141 22.9134 0 22.2656 0H1.17188C0.524141 0 0 0.524141 0 1.17188V15.2344C0 15.8821 0.524141 16.4062 1.17188 16.4062H22.2656C22.9134 16.4062 23.4375 15.8821 23.4375 15.2344Z" fill="url(#paint0_linear)"/>
<path d="M7.03125 30.625C3.15398 30.625 0 33.779 0 37.6562V38.8281C0 39.4759 0.524141 40 1.17188 40H12.8906C13.5384 40 14.0625 39.4759 14.0625 38.8281V37.6562C14.0625 33.779 10.9085 30.625 7.03125 30.625ZM34.1406 25.9375H22.4219C21.7741 25.9375 21.25 26.4616 21.25 27.1094C21.25 27.7571 21.7741 28.2812 22.4219 28.2812H34.1406C34.7884 28.2812 35.3125 27.7571 35.3125 27.1094C35.3125 26.4616 34.7884 25.9375 34.1406 25.9375ZM27.1094 30.625H22.4219C21.7741 30.625 21.25 31.1491 21.25 31.7969C21.25 32.4446 21.7741 32.9688 22.4219 32.9688H27.1094C27.7571 32.9688 28.2812 32.4446 28.2812 31.7969C28.2812 31.1491 27.7571 30.625 27.1094 30.625ZM34.1406 30.625H31.7969C31.1491 30.625 30.625 31.1491 30.625 31.7969C30.625 32.4446 31.1491 32.9688 31.7969 32.9688H34.1406C34.7884 32.9688 35.3125 32.4446 35.3125 31.7969C35.3125 31.1491 34.7884 30.625 34.1406 30.625ZM32.9688 9.375C29.0915 9.375 25.9375 12.529 25.9375 16.4062V17.5781C25.9375 18.2259 26.4616 18.75 27.1094 18.75H38.8281C39.4759 18.75 40 18.2259 40 17.5781V16.4062C40 12.529 36.846 9.375 32.9688 9.375ZM17.5781 4.6875H5.85938C5.21164 4.6875 4.6875 5.21164 4.6875 5.85938C4.6875 6.50711 5.21164 7.03125 5.85938 7.03125H17.5781C18.2259 7.03125 18.75 6.50711 18.75 5.85938C18.75 5.21164 18.2259 4.6875 17.5781 4.6875ZM17.5781 9.375H12.8906C12.2429 9.375 11.7188 9.89914 11.7188 10.5469C11.7188 11.1946 12.2429 11.7188 12.8906 11.7188H17.5781C18.2259 11.7188 18.75 11.1946 18.75 10.5469C18.75 9.89914 18.2259 9.375 17.5781 9.375ZM8.20312 11.7188C8.85086 11.7188 9.375 11.1946 9.375 10.5469C9.375 9.89914 8.85086 9.375 8.20312 9.375H5.85938C5.21164 9.375 4.6875 9.89914 4.6875 10.5469C4.6875 11.1946 5.21164 11.7188 5.85938 11.7188H8.20312Z" fill="url(#paint1_linear)"/>
<defs>
<linearGradient id="paint0_linear" x1="20" y1="37.6562" x2="20" y2="0" gradientUnits="userSpaceOnUse">
<stop stop-color="#ADDCFF"/>
<stop offset="0.5028" stop-color="#EAF6FF"/>
<stop offset="1" stop-color="#EAF6FF"/>
</linearGradient>
<linearGradient id="paint1_linear" x1="20" y1="40" x2="20" y2="4.6875" gradientUnits="userSpaceOnUse">
<stop stop-color="#009BF4"/>
<stop offset="1" stop-color="#B2E1FC"/>
</linearGradient>
</defs>
</svg>
