<svg width="40" height="38" viewBox="0 0 40 38" fill="none" xmlns="http://www.w3.org/2000/svg">
<path d="M30.625 21.3438L23.5938 23.6875L18.9062 30.7188L23.5938 37.75H36.4844C37.1316 37.75 37.6562 37.2253 37.6562 36.5781V23.6875L30.625 21.3438ZM14.843 5.07023L14.0625 4.79328V1.42188C14.0625 0.774687 13.5378 0.25 12.8906 0.25H1.17188C0.524687 0.25 0 0.774687 0 1.42188V13.1406C0 13.7878 0.524687 14.3125 1.17188 14.3125H4.54562L4.82258 15.093C5.15211 16.028 6.04016 16.6562 7.03125 16.6562C8.02234 16.6562 8.91039 16.028 9.23992 15.093L9.51688 14.3125H12.8906C13.5378 14.3125 14.0625 13.7878 14.0625 13.1406V9.76922L14.843 9.49227C15.7768 9.16039 16.4062 8.27234 16.4062 7.28125C16.4062 6.29016 15.7768 5.40211 14.843 5.07023Z" fill="url(#paint0_linear)"/>
<path d="M38.4365 14.4452L37.6561 14.1682V10.7968C37.6561 10.1496 37.1314 9.62495 36.4842 9.62495H24.7654C24.1183 9.62495 23.5936 10.1496 23.5936 10.7968V14.3124C24.8868 14.3124 25.9373 15.3642 25.9373 16.6562C25.9373 17.9482 24.8868 18.9999 23.5936 18.9999V23.6874H28.1392L28.4162 24.4679C28.7457 25.4029 29.6337 26.0312 30.6248 26.0312C31.6159 26.0312 32.504 25.4029 32.8335 24.4679L33.1105 23.6874H37.6561V19.1442L38.4365 18.8672C39.3704 18.5353 39.9998 17.6473 39.9998 16.6562C39.9998 15.6651 39.3704 14.7771 38.4365 14.4452ZM16.5623 26.0312C15.2691 26.0312 14.2186 24.9795 14.2186 23.6874H10.7029C10.0558 23.6874 9.53107 24.2121 9.53107 24.8593V36.5781C9.53107 37.2253 10.0558 37.7499 10.7029 37.7499H23.5936V33.2067L24.374 32.9297C25.3079 32.5978 25.9373 31.7098 25.9373 30.7187C25.9373 29.7276 25.3079 28.8396 24.374 28.5077L23.5936 28.2307V23.6874H18.9061C18.9061 24.9795 17.8555 26.0312 16.5623 26.0312ZM10.1026 4.79557C9.6449 4.33784 8.90326 4.33784 8.44553 4.79557L6.44514 6.79596L5.61662 5.96745C5.15889 5.50971 4.41725 5.50971 3.95951 5.96745C3.50178 6.42518 3.50178 7.16682 3.95951 7.62456L5.61662 9.28167C5.84553 9.51057 6.14537 9.62502 6.44514 9.62502C6.7449 9.62502 7.04482 9.51057 7.27365 9.28167L10.1026 6.45268C10.5604 5.99487 10.5604 5.25331 10.1026 4.79557Z" fill="url(#paint1_linear)"/>
<defs>
<linearGradient id="paint0_linear" x1="18.8281" y1="37.75" x2="18.8281" y2="0.25" gradientUnits="userSpaceOnUse">
<stop stop-color="#ADDCFF"/>
<stop offset="0.5028" stop-color="#EAF6FF"/>
<stop offset="1" stop-color="#EAF6FF"/>
</linearGradient>
<linearGradient id="paint1_linear" x1="21.808" y1="37.7499" x2="21.808" y2="4.45227" gradientUnits="userSpaceOnUse">
<stop stop-color="#009BF4"/>
<stop offset="1" stop-color="#B2E1FC"/>
</linearGradient>
</defs>
</svg>
