<svg width="40" height="40" viewBox="0 0 40 40" fill="none" xmlns="http://www.w3.org/2000/svg">
<path d="M33.9844 16.5625H29.2969C28.6491 16.5625 28.125 17.0866 28.125 17.7344V38.8281C28.125 39.4759 28.6491 40 29.2969 40H33.9844C34.6321 40 35.1562 39.4759 35.1562 38.8281V17.7344C35.1562 17.0866 34.6321 16.5625 33.9844 16.5625ZM24.6094 25.9375H19.9219C19.2741 25.9375 18.75 26.4616 18.75 27.1094V38.8281C18.75 39.4759 19.2741 40 19.9219 40H24.6094C25.2571 40 25.7812 39.4759 25.7812 38.8281V27.1094C25.7812 26.4616 25.2571 25.9375 24.6094 25.9375ZM15.2344 21.25H10.5469C9.89914 21.25 9.375 21.7741 9.375 22.4219V38.8281C9.375 39.4759 9.89914 40 10.5469 40H15.2344C15.8821 40 16.4062 39.4759 16.4062 38.8281V22.4219C16.4062 21.7741 15.8821 21.25 15.2344 21.25ZM5.85938 28.2812H1.17188C0.524141 28.2812 0 28.8054 0 29.4531V38.8281C0 39.4759 0.524141 40 1.17188 40H5.85938C6.50711 40 7.03125 39.4759 7.03125 38.8281V29.4531C7.03125 28.8054 6.50711 28.2812 5.85938 28.2812ZM3.51562 18.9062C1.57703 18.9062 0 20.4833 0 22.4219C0 24.3605 1.57703 25.9375 3.51562 25.9375C5.45422 25.9375 7.03125 24.3605 7.03125 22.4219C7.03125 20.4833 5.45422 18.9062 3.51562 18.9062ZM12.8906 9.53125C10.952 9.53125 9.375 11.1083 9.375 13.0469C9.375 14.9855 10.952 16.5625 12.8906 16.5625C14.8292 16.5625 16.4062 14.9855 16.4062 13.0469C16.4062 11.1083 14.8292 9.53125 12.8906 9.53125ZM22.2656 14.2188C20.327 14.2188 18.75 15.7958 18.75 17.7344C18.75 19.673 20.327 21.25 22.2656 21.25C24.2042 21.25 25.7812 19.673 25.7812 17.7344C25.7812 15.7958 24.2042 14.2188 22.2656 14.2188ZM31.6406 11.875C33.5792 11.875 35.1562 10.298 35.1562 8.35938C35.1562 6.42078 33.5792 4.84375 31.6406 4.84375C29.702 4.84375 28.125 6.42078 28.125 8.35938C28.125 10.298 29.702 11.875 31.6406 11.875Z" fill="url(#paint0_linear)"/>
<defs>
<linearGradient id="paint0_linear" x1="17.5781" y1="40" x2="17.5781" y2="4.84375" gradientUnits="userSpaceOnUse">
<stop stop-color="#009BF4"/>
<stop offset="1" stop-color="#B2E1FC"/>
</linearGradient>
</defs>
</svg>
