<svg width="40" height="40" viewBox="0 0 40 40" fill="none" xmlns="http://www.w3.org/2000/svg">
<path d="M20.5923 8.28125L0 10.625V36.4844C0 38.4295 1.57023 40 3.51562 40H36.4844C38.4298 40 40 38.4295 40 36.4844V10.625L20.5923 8.28125ZM8.28125 8.28125C9.57445 8.28125 10.625 7.22953 10.625 5.9375C10.625 4.64547 9.57445 3.59375 8.28125 3.59375C6.98805 3.59375 5.9375 4.64547 5.9375 5.9375C5.9375 7.22953 6.98805 8.28125 8.28125 8.28125ZM12.9688 8.28125C14.262 8.28125 15.3125 7.22953 15.3125 5.9375C15.3125 4.64547 14.262 3.59375 12.9688 3.59375C11.6755 3.59375 10.625 4.64547 10.625 5.9375C10.625 7.22953 11.6755 8.28125 12.9688 8.28125ZM17.6562 8.28125C18.9495 8.28125 20 7.22953 20 5.9375C20 4.64547 18.9495 3.59375 17.6562 3.59375C16.363 3.59375 15.3125 4.64547 15.3125 5.9375C15.3125 7.22953 16.363 8.28125 17.6562 8.28125Z" fill="url(#paint0_linear)"/>
<path d="M36.4844 0H3.51562C1.57023 0 0 1.57031 0 3.51562V10.625H40V3.51562C40 1.57031 38.4298 0 36.4844 0ZM8.28125 7.10938C7.63406 7.10938 7.10938 6.58469 7.10938 5.9375C7.10938 5.29016 7.63406 4.76562 8.28125 4.76562C8.92844 4.76562 9.45312 5.29016 9.45312 5.9375C9.45312 6.58469 8.92844 7.10938 8.28125 7.10938ZM12.9688 7.10938C12.3216 7.10938 11.7969 6.58469 11.7969 5.9375C11.7969 5.29016 12.3216 4.76562 12.9688 4.76562C13.6159 4.76562 14.1406 5.29016 14.1406 5.9375C14.1406 6.58469 13.6159 7.10938 12.9688 7.10938ZM17.6562 7.10938C17.0091 7.10938 16.4844 6.58469 16.4844 5.9375C16.4844 5.29016 17.0091 4.76562 17.6562 4.76562C18.3034 4.76562 18.8281 5.29016 18.8281 5.9375C18.8281 6.58469 18.3034 7.10938 17.6562 7.10938ZM17.6562 14.1406H8.28125C7.63352 14.1406 7.10938 14.6648 7.10938 15.3125V22.3438C7.10938 22.9915 7.63352 23.5156 8.28125 23.5156H17.6562C18.304 23.5156 18.8281 22.9915 18.8281 22.3438V15.3125C18.8281 14.6648 18.304 14.1406 17.6562 14.1406ZM31.7188 25.8594H22.3438C21.696 25.8594 21.1719 26.3835 21.1719 27.0312V34.0625C21.1719 34.7102 21.696 35.2344 22.3438 35.2344H31.7188C32.3665 35.2344 32.8906 34.7102 32.8906 34.0625V27.0312C32.8906 26.3835 32.3665 25.8594 31.7188 25.8594ZM17.6562 32.8906H8.28125C7.63352 32.8906 7.10938 33.4148 7.10938 34.0625C7.10938 34.7102 7.63352 35.2344 8.28125 35.2344H17.6562C18.304 35.2344 18.8281 34.7102 18.8281 34.0625C18.8281 33.4148 18.304 32.8906 17.6562 32.8906ZM17.6562 28.2031H8.28125C7.63352 28.2031 7.10938 28.7273 7.10938 29.375C7.10938 30.0227 7.63352 30.5469 8.28125 30.5469H17.6562C18.304 30.5469 18.8281 30.0227 18.8281 29.375C18.8281 28.7273 18.304 28.2031 17.6562 28.2031ZM31.7188 21.1719H22.3438C21.696 21.1719 21.1719 21.696 21.1719 22.3438C21.1719 22.9915 21.696 23.5156 22.3438 23.5156H31.7188C32.3665 23.5156 32.8906 22.9915 32.8906 22.3438C32.8906 21.696 32.3665 21.1719 31.7188 21.1719ZM31.7188 16.4844H22.3438C21.696 16.4844 21.1719 17.0085 21.1719 17.6562C21.1719 18.304 21.696 18.8281 22.3438 18.8281H31.7188C32.3665 18.8281 32.8906 18.304 32.8906 17.6562C32.8906 17.0085 32.3665 16.4844 31.7188 16.4844Z" fill="url(#paint1_linear)"/>
<defs>
<linearGradient id="paint0_linear" x1="20" y1="40" x2="20" y2="3.59375" gradientUnits="userSpaceOnUse">
<stop stop-color="#009BF4"/>
<stop offset="1" stop-color="#B2E1FC"/>
</linearGradient>
<linearGradient id="paint1_linear" x1="20" y1="35.2344" x2="20" y2="0" gradientUnits="userSpaceOnUse">
<stop stop-color="#ADDCFF"/>
<stop offset="0.5028" stop-color="#EAF6FF"/>
<stop offset="1" stop-color="#EAF6FF"/>
</linearGradient>
</defs>
</svg>
