<svg width="40" height="40" viewBox="0 0 40 40" fill="none" xmlns="http://www.w3.org/2000/svg">
<path d="M36.4062 1.17383H3.59375C2.93742 1.17383 2.42188 1.68938 2.42188 2.3457V29.2988C2.42188 29.9552 2.93742 30.4707 3.59375 30.4707H8.72656L8.69891 32.8145L11.3515 30.4707H28.6484L31.2662 31.6426L31.2734 30.4707H36.4062C37.0626 30.4707 37.5781 29.9552 37.5781 29.2988V2.3457C37.5781 1.68938 37.0626 1.17383 36.4062 1.17383Z" fill="url(#paint0_linear)"/>
<path d="M4.88281 38.3145C4.60156 38.877 4.83602 39.5801 5.42195 39.8848C6.10875 40.179 6.73258 39.8648 6.99219 39.3456L11.3516 30.4707H8.72656L4.88281 38.3145ZM31.2734 30.4707H28.6484L33.0078 39.3456C33.2669 39.8638 33.8904 40.1795 34.578 39.8848C35.164 39.5801 35.3984 38.877 35.1172 38.3145L31.2734 30.4707ZM10.625 9.37695C9.97727 9.37695 9.45312 9.90109 9.45312 10.5488V14.0645H8.28125C7.63352 14.0645 7.10938 14.5886 7.10938 15.2363C7.10938 15.8841 7.63352 16.4082 8.28125 16.4082H22.3438C22.9915 16.4082 23.5156 15.8841 23.5156 15.2363C23.5156 14.5886 22.9915 14.0645 22.3438 14.0645H21.1719V8.20508C21.1719 7.55734 20.6477 7.0332 20 7.0332C19.3523 7.0332 18.8281 7.55734 18.8281 8.20508V14.0645H16.4844V5.86133C16.4844 5.21359 15.9602 4.68945 15.3125 4.68945C14.6648 4.68945 14.1406 5.21359 14.1406 5.86133V14.0645H11.7969V10.5488C11.7969 9.90109 11.2727 9.37695 10.625 9.37695ZM14.1406 19.9238C14.1406 20.5716 14.6648 21.0957 15.3125 21.0957H31.7188C32.3665 21.0957 32.8906 20.5716 32.8906 19.9238C32.8906 19.2761 32.3665 18.752 31.7188 18.752H15.3125C14.6648 18.752 14.1406 19.2761 14.1406 19.9238ZM8.28125 25.7832H29.375C30.0227 25.7832 30.5469 25.2591 30.5469 24.6113C30.5469 23.9636 30.0227 23.4395 29.375 23.4395H8.28125C7.63352 23.4395 7.10938 23.9636 7.10938 24.6113C7.10938 25.2591 7.63352 25.7832 8.28125 25.7832ZM27.0312 16.4082H31.7188C32.3665 16.4082 32.8906 15.8841 32.8906 15.2363C32.8906 14.5886 32.3665 14.0645 31.7188 14.0645H27.0312C26.3835 14.0645 25.8594 14.5886 25.8594 15.2363C25.8594 15.8841 26.3835 16.4082 27.0312 16.4082ZM27.0312 11.7207H31.7188C32.3665 11.7207 32.8906 11.1966 32.8906 10.5488C32.8906 9.90109 32.3665 9.37695 31.7188 9.37695H27.0312C26.3835 9.37695 25.8594 9.90109 25.8594 10.5488C25.8594 11.1966 26.3835 11.7207 27.0312 11.7207ZM27.0312 7.0332H31.7188C32.3665 7.0332 32.8906 6.50906 32.8906 5.86133C32.8906 5.21359 32.3665 4.68945 31.7188 4.68945H27.0312C26.3835 4.68945 25.8594 5.21359 25.8594 5.86133C25.8594 6.50906 26.3835 7.0332 27.0312 7.0332ZM8.28125 21.0957H10.625C11.2727 21.0957 11.7969 20.5716 11.7969 19.9238C11.7969 19.2761 11.2727 18.752 10.625 18.752H8.28125C7.63352 18.752 7.10938 19.2761 7.10938 19.9238C7.10938 20.5716 7.63352 21.0957 8.28125 21.0957ZM38.8281 0.00195312H1.17188C0.524141 0.00195312 0 0.526094 0 1.17383C0 1.82156 0.524141 2.3457 1.17188 2.3457H38.8281C39.4759 2.3457 40 1.82156 40 1.17383C40 0.526094 39.4759 0.00195312 38.8281 0.00195312Z" fill="url(#paint1_linear)"/>
<defs>
<linearGradient id="paint0_linear" x1="20" y1="32.8144" x2="20" y2="1.17383" gradientUnits="userSpaceOnUse">
<stop stop-color="#009BF4"/>
<stop offset="1" stop-color="#B2E1FC"/>
</linearGradient>
<linearGradient id="paint1_linear" x1="20" y1="39.9981" x2="20" y2="0.00195312" gradientUnits="userSpaceOnUse">
<stop stop-color="#ADDCFF"/>
<stop offset="0.5028" stop-color="#EAF6FF"/>
<stop offset="1" stop-color="#EAF6FF"/>
</linearGradient>
</defs>
</svg>
