<svg width="40" height="40" viewBox="0 0 40 40" fill="none" xmlns="http://www.w3.org/2000/svg">
<path d="M35.2344 23.7159V15.3125C35.2344 13.3739 33.6573 11.7969 31.7188 11.7969H30.8253L30.9177 11.7053C31.1763 11.7648 31.4464 11.7969 31.7188 11.7969C33.6573 11.7969 35.2344 10.2198 35.2344 8.28125C35.1352 6.33695 35.5162 5.44375 34.6942 4.11328C34.227 3.58336 33.4919 2.42188 31.7188 2.42188H29.375C27.4364 2.42188 25.8594 3.99891 25.8594 5.9375C25.8594 6.20984 25.8914 6.47766 25.9532 6.73516L25.5755 7.10938H15.3125C14.3283 7.10938 13.3922 7.52133 12.836 8.14734L5.84828 15.1351C5.16156 15.7886 4.76562 16.7064 4.76562 17.6562C4.76562 18.5395 5.10828 19.3947 5.60352 19.9272C5.08648 20.4639 4.76562 21.2368 4.76562 22.3438V23.7159C3.40148 24.2 2.42188 25.5034 2.42188 27.0312C2.42188 28.9698 3.99891 30.5469 5.9375 30.5469H15.3125C14.6648 30.5469 14.1406 31.071 14.1406 31.7188V37.6562C12.923 37.6562 11.7342 37.6562 10.625 37.6562C9.97727 37.6562 9.45312 38.1804 9.45312 38.8281C9.45312 39.4759 9.97727 40 10.625 40H29.375C30.0227 40 30.5469 39.4759 30.5469 38.8281C30.5469 38.1804 30.0227 37.6562 29.375 37.6562C28.2608 37.6562 27.0729 37.6562 25.8594 37.6562V31.7188C25.8594 31.071 25.3352 30.5469 24.6875 30.5469H34.0625C36.0011 30.5469 37.5781 28.9698 37.5781 27.0312C37.5781 25.5034 36.5985 24.2 35.2344 23.7159Z" fill="url(#paint0_linear)"/>
<path d="M38.8281 0H1.17188C0.515547 0 0 0.515547 0 1.17188V31.7188C0 32.3749 0.515547 32.8906 1.17188 32.8906H38.8281C39.4845 32.8906 40 32.3749 40 31.7188V1.17188C40 0.515547 39.4845 0 38.8281 0ZM7.46102 16.8359L14.4923 9.80461C14.7031 9.57031 15.0078 9.45312 15.3125 9.45312H26.539L28.9766 7.03898C28.5312 6.85156 28.2031 6.45305 28.2031 5.9375C28.2031 5.28117 28.7187 4.76562 29.375 4.76562H31.7188C32.1166 4.76562 32.4359 4.95859 32.6328 5.23438C32.7505 5.46906 32.8906 5.59859 32.8906 5.9375V8.28125C32.8906 8.93742 32.3751 9.45312 31.7188 9.45312C31.2265 9.45312 30.7812 9.14844 30.6173 8.70312L27.8515 11.4452C27.6406 11.6797 27.3359 11.7969 27.0312 11.7969H15.8048L9.10156 18.4765C8.68 18.9452 7.88281 18.9454 7.46102 18.4765C6.99219 18.0312 6.99219 17.2812 7.46102 16.8359ZM34.0625 28.2031H5.9375C5.28117 28.2031 4.76562 27.6874 4.76562 27.0312C4.76562 26.3749 5.28117 25.8594 5.9375 25.8594H7.10938V22.3438C7.10938 21.6874 7.62492 21.1719 8.28125 21.1719H12.9688C13.6251 21.1719 14.1406 21.6874 14.1406 22.3438V25.8594H16.4844V20C16.4844 19.3437 16.9999 18.8281 17.6562 18.8281H22.3438C23.0001 18.8281 23.5156 19.3437 23.5156 20V25.8594H25.8594V15.3125C25.8594 14.6562 26.3749 14.1406 27.0312 14.1406H31.7188C32.3751 14.1406 32.8906 14.6562 32.8906 15.3125V25.8594H34.0625C34.7188 25.8594 35.2344 26.3749 35.2344 27.0312C35.2344 27.6874 34.7188 28.2031 34.0625 28.2031Z" fill="url(#paint1_linear)"/>
<defs>
<linearGradient id="paint0_linear" x1="20" y1="40" x2="20" y2="2.42188" gradientUnits="userSpaceOnUse">
<stop stop-color="#ADDCFF"/>
<stop offset="0.5028" stop-color="#EAF6FF"/>
<stop offset="1" stop-color="#EAF6FF"/>
</linearGradient>
<linearGradient id="paint1_linear" x1="20" y1="32.8906" x2="20" y2="0" gradientUnits="userSpaceOnUse">
<stop stop-color="#009BF4"/>
<stop offset="1" stop-color="#B2E1FC"/>
</linearGradient>
</defs>
</svg>
