<svg width="32" height="40" viewBox="0 0 32 40" fill="none" xmlns="http://www.w3.org/2000/svg">
<path d="M30.0625 6.37662C23.576 6.37662 16.8538 0.364043 16.7873 0.303809C16.3405 -0.10127 15.6595 -0.10127 15.2127 0.303809C15.1458 0.364512 8.44125 6.37662 1.9375 6.37662C1.29031 6.37662 0.765625 6.90131 0.765625 7.5485V21.5827C0.765625 32.9518 9.22156 37.4947 15.582 39.923C15.7166 39.9744 15.8583 40 16 40C16.1417 40 16.2834 39.9743 16.418 39.923C25.3363 36.5183 31.2344 31.2074 31.2344 21.5827V7.5485C31.2344 6.90131 30.7097 6.37662 30.0625 6.37662Z" fill="url(#paint0_linear)"/>
<path d="M16 11.7969C11.4768 11.7969 7.79688 15.4768 7.79688 20C7.79688 24.5232 11.4768 28.2031 16 28.2031C20.5232 28.2031 24.2031 24.5232 24.2031 20C24.2031 15.4768 20.5232 11.7969 16 11.7969ZM19.1723 19.6567L15.6567 23.1723C15.428 23.4012 15.128 23.5156 14.8281 23.5156C14.5282 23.5156 14.2283 23.4012 13.9995 23.1723L12.8277 22.0005C12.37 21.5428 12.37 20.8009 12.8277 20.3432C13.2852 19.8855 14.0273 19.8855 14.4849 20.3432L14.8282 20.6864L17.5152 17.9995C17.9728 17.5418 18.7148 17.5418 19.1725 17.9995C19.6301 18.4571 19.6301 19.1991 19.1723 19.6567Z" fill="url(#paint1_linear)"/>
<defs>
<linearGradient id="paint0_linear" x1="16" y1="39.9999" x2="16" y2="0" gradientUnits="userSpaceOnUse">
<stop stop-color="#009BF4"/>
<stop offset="1" stop-color="#B2E1FC"/>
</linearGradient>
<linearGradient id="paint1_linear" x1="16" y1="28.2031" x2="16" y2="11.7969" gradientUnits="userSpaceOnUse">
<stop stop-color="#ADDCFF"/>
<stop offset="0.5028" stop-color="#EAF6FF"/>
<stop offset="1" stop-color="#EAF6FF"/>
</linearGradient>
</defs>
</svg>
